<?xml version="1.0" standalone="no"?>
<!DOCTYPE svg PUBLIC "-//W3C//DTD SVG 20010904//EN"
 "http://www.w3.org/TR/2001/REC-SVG-20010904/DTD/svg10.dtd">
<svg version="1.0" xmlns="http://www.w3.org/2000/svg"
 width="648.000000pt" height="648.000000pt" viewBox="0 0 648.000000 648.000000"
 preserveAspectRatio="xMidYMid meet">
<metadata>
Created by potrace 1.11, written by Peter Selinger 2001-2013
</metadata>
<g transform="translate(0.000000,648.000000) scale(0.100000,-0.100000)"
fill="#000000" stroke="none">
<path d="M2590 6473 c-29 -11 -79 -67 -86 -95 -3 -16 -7 -50 -9 -74 -4 -53
-36 -110 -100 -179 -26 -27 -59 -68 -73 -90 -15 -22 -30 -42 -34 -45 -4 -3
-16 -26 -27 -51 -66 -149 -59 -341 16 -477 25 -45 76 -112 136 -177 55 -59 79
-111 82 -178 3 -94 -22 -143 -140 -273 -111 -123 -170 -320 -125 -421 36 -81
138 -110 206 -58 40 31 52 51 59 102 17 121 14 116 129 252 73 87 131 187 141
243 3 12 7 34 10 48 6 29 7 130 0 180 -11 96 -76 218 -163 309 -82 86 -103
127 -109 207 -5 65 -3 79 21 126 14 29 51 80 82 113 117 127 169 238 175 380
4 70 -24 121 -81 149 -27 13 -86 18 -110 9z"/>
<path d="M3330 6460 c-46 -24 -67 -62 -75 -134 -8 -74 -34 -129 -90 -188 -100
-107 -164 -215 -181 -303 -9 -49 -10 -178 -2 -225 8 -43 28 -101 41 -117 5 -7
6 -13 3 -13 -11 0 69 -110 124 -170 79 -86 101 -133 103 -215 1 -76 -16 -122
-68 -180 -155 -175 -196 -251 -209 -389 -8 -81 7 -128 52 -165 30 -26 45 -31
89 -31 48 0 56 3 93 40 22 22 40 48 41 58 7 125 31 173 146 300 103 113 144
226 139 387 -5 153 -39 229 -173 383 -87 101 -105 139 -105 222 0 81 12 103
119 230 76 89 73 86 99 130 43 75 59 140 59 247 0 62 -3 75 -25 99 -50 54
-119 67 -180 34z"/>
<path d="M4093 6464 c-44 -22 -73 -73 -78 -135 -5 -63 -42 -141 -93 -194 -135
-141 -188 -257 -190 -420 -2 -151 52 -273 183 -413 67 -72 96 -131 97 -200 0
-31 -2 -67 -5 -80 -7 -26 -43 -88 -67 -112 -144 -152 -196 -252 -206 -400 -5
-69 -3 -78 22 -117 59 -89 191 -85 240 9 9 17 18 53 19 80 3 42 37 134 55 148
3 3 38 41 76 86 115 134 159 252 149 404 -2 41 -6 82 -8 90 -15 62 -31 103
-60 150 -32 54 -50 77 -129 164 -57 62 -81 118 -81 190 -1 75 23 129 89 201
134 147 183 247 190 385 4 75 -13 121 -57 153 -37 27 -106 32 -146 11z"/>
<path d="M1939 4656 c-2 -2 -22 -6 -44 -10 -37 -5 -54 -8 -110 -21 -11 -2 -30
-6 -43 -9 -126 -28 -343 -90 -407 -117 -16 -7 -32 -13 -35 -14 -30 -7 -80 -31
-80 -37 0 -4 -3 -7 -7 -6 -12 3 -85 -38 -114 -64 -56 -49 -55 -84 2 -132 36
-31 189 -110 189 -99 0 5 4 3 8 -3 18 -27 463 -148 617 -168 17 -3 77 -12 125
-21 8 -1 40 -6 70 -10 30 -4 62 -9 70 -10 8 -2 44 -6 80 -9 36 -4 81 -9 100
-11 32 -4 138 -13 235 -21 318 -24 952 -23 1251 1 130 11 246 22 314 31 25 3
59 7 75 8 33 3 175 24 215 32 14 2 39 7 55 9 17 2 64 12 105 21 41 9 86 18
100 20 45 6 283 74 355 100 181 68 305 147 305 197 0 48 -139 138 -305 196
-66 24 -246 77 -285 85 -25 5 -42 9 -90 20 -14 3 -36 8 -50 10 -14 3 -36 8
-50 11 -14 3 -41 8 -60 11 -19 3 -40 7 -46 9 -16 5 -28 -5 -71 -62 -21 -29
-55 -70 -75 -91 -24 -26 -38 -52 -41 -79 -15 -107 -51 -178 -128 -256 -85 -85
-196 -127 -316 -121 -136 7 -250 70 -331 182 l-30 42 -22 -34 c-24 -40 -111
-121 -151 -142 -105 -54 -250 -64 -353 -24 -33 13 -69 31 -80 41 -11 11 -23
19 -27 19 -10 0 -74 68 -104 109 -22 31 -25 32 -32 15 -4 -10 -12 -25 -19 -31
-7 -7 -21 -23 -31 -36 -61 -78 -186 -137 -298 -142 -187 -7 -344 97 -418 275
-22 52 -31 223 -16 291 9 39 8 55 -2 45z"/>
<path d="M1055 3423 c1 -285 5 -540 9 -568 6 -46 11 -78 22 -145 24 -141 65
-291 114 -409 21 -54 30 -79 29 -87 0 -4 3 -10 8 -13 4 -3 28 -46 52 -95 125
-251 325 -505 531 -672 19 -16 44 -37 55 -47 40 -37 305 -209 325 -212 3 -1
32 -15 65 -32 60 -31 167 -77 215 -93 74 -25 198 -62 220 -66 14 -3 45 -10 70
-15 84 -19 98 -22 245 -38 108 -12 388 -5 505 13 163 25 413 91 448 119 6 5
12 7 12 4 0 -18 325 145 397 199 17 13 35 24 38 24 6 0 28 16 82 60 7 6 15 10
18 10 4 0 12 6 19 13 7 6 39 35 72 62 79 67 210 198 259 260 22 27 45 55 50
61 6 6 26 34 45 62 19 28 43 54 54 58 10 3 83 6 163 6 205 1 335 29 488 105
376 187 595 595 542 1013 -24 192 -110 379 -247 536 -34 38 -164 154 -174 154
-2 0 -33 17 -67 38 -69 42 -200 95 -264 108 -22 5 -43 9 -47 10 -5 1 -15 2
-23 3 -11 1 -15 13 -15 46 0 25 -2 45 -5 45 -10 0 -80 -35 -86 -43 -3 -5 -10
-9 -15 -9 -11 -1 -34 -8 -59 -18 -30 -13 -168 -61 -185 -65 -8 -2 -50 -13 -92
-25 -43 -11 -87 -23 -98 -25 -12 -2 -29 -6 -38 -9 -9 -3 -30 -8 -47 -11 -16
-2 -40 -7 -52 -10 -52 -12 -62 -14 -94 -19 -19 -3 -58 -10 -88 -16 -30 -5 -56
-8 -59 -6 -2 3 -14 1 -26 -4 -13 -4 -47 -11 -77 -14 -68 -8 -125 -15 -164 -20
-35 -6 -118 -14 -195 -21 -30 -2 -85 -7 -121 -10 -37 -3 -109 -9 -160 -12
-129 -8 -871 -8 -994 0 -174 12 -282 21 -390 33 -22 3 -60 7 -85 9 -65 7 -208
28 -350 51 -98 16 -137 23 -150 28 -8 3 -31 7 -50 10 -28 5 -142 32 -250 60
-63 17 -211 71 -286 105 -51 23 -94 41 -96 41 -3 0 -4 -233 -3 -517z m4385
123 c146 -46 318 -181 386 -302 35 -64 58 -113 70 -154 8 -25 10 -33 21 -80 3
-14 7 -74 9 -133 4 -187 -56 -345 -183 -483 -106 -115 -267 -201 -411 -219
-47 -6 -142 -13 -142 -10 0 1 14 39 31 86 37 102 89 295 81 303 -3 3 -1 6 4 6
5 0 11 12 12 28 1 15 9 61 17 104 12 66 20 127 31 228 1 14 2 163 3 333 1 238
4 307 14 307 6 0 32 -7 57 -14z"/>
<path d="M1497 1283 c-2 -2 -19 -5 -92 -17 -83 -14 -109 -19 -215 -42 -63 -14
-126 -28 -140 -30 -14 -3 -34 -8 -45 -11 -24 -8 -21 -8 -70 -18 -49 -11 -47
-10 -65 -18 -8 -3 -49 -15 -90 -28 -196 -58 -406 -152 -512 -232 -59 -43 -108
-107 -108 -139 0 -94 174 -217 450 -318 63 -23 122 -44 130 -47 8 -3 20 -7 25
-8 6 -2 51 -15 100 -29 50 -15 99 -29 110 -31 26 -6 99 -23 150 -37 22 -5 51
-12 65 -14 14 -3 84 -16 155 -30 72 -14 144 -27 160 -29 62 -8 111 -16 130
-19 11 -2 45 -7 75 -11 30 -4 66 -9 80 -11 14 -3 48 -7 75 -9 28 -3 68 -7 90
-10 113 -14 195 -21 320 -30 203 -14 247 -16 325 -21 47 -2 173 -6 280 -8 108
-3 200 -5 205 -6 6 -1 12 -1 15 0 15 5 73 4 76 -2 3 -4 15 -3 28 2 12 4 28 5
35 1 6 -4 32 -5 57 -1 24 4 47 3 50 -2 3 -4 10 -6 15 -2 6 3 87 7 182 9 169 3
378 12 467 20 25 2 90 7 145 10 55 3 111 8 125 10 14 2 59 7 100 10 41 4 89 9
105 11 17 2 72 8 124 14 51 7 103 14 115 16 11 2 41 7 66 10 25 3 56 8 70 10
14 3 41 7 60 9 19 2 46 6 60 9 46 10 75 16 110 21 19 4 55 11 80 16 25 6 55
13 68 15 42 8 67 13 130 29 84 20 243 64 262 72 8 3 17 7 20 7 38 9 107 31
116 37 6 5 19 10 30 12 10 2 32 9 48 16 238 97 376 189 410 272 14 33 13 39
-5 76 -49 99 -239 209 -541 312 -65 22 -118 38 -118 36 0 -2 -17 3 -37 12 -21
8 -39 15 -40 14 -2 0 -4 -1 -5 0 -2 0 -10 2 -18 4 -8 1 -43 10 -77 19 -34 9
-106 26 -160 37 -95 20 -119 25 -165 33 -21 3 -48 8 -123 21 -100 19 -83 24
-180 -63 -161 -147 -503 -347 -710 -417 -27 -9 -55 -21 -62 -27 -7 -6 -13 -8
-13 -4 0 3 -17 -1 -37 -9 -21 -9 -39 -16 -40 -16 -2 1 -4 1 -5 0 -5 -1 -33 -8
-56 -13 -12 -3 -26 -7 -30 -10 -4 -2 -27 -7 -52 -11 -25 -4 -48 -9 -52 -11
-15 -9 -72 -19 -223 -38 -27 -3 -74 -8 -104 -11 -30 -3 -57 -7 -59 -9 -2 -2
-17 0 -33 4 -16 5 -29 6 -29 2 0 -7 -158 -6 -245 2 -167 15 -209 22 -345 51
-37 8 -86 19 -90 20 -3 1 -18 5 -35 9 -16 4 -47 14 -67 22 -21 8 -38 11 -38 8
0 -4 -7 0 -17 7 -9 8 -17 13 -17 11 -1 -2 -14 1 -29 7 -16 6 -33 11 -38 11
-12 0 -73 27 -229 102 -131 64 -274 152 -400 248 -71 55 -87 68 -152 126 -23
19 -69 30 -81 17z"/>
</g>
</svg>
