<?xml version="1.0" encoding="UTF-8"?>
<!DOCTYPE svg PUBLIC "-//W3C//DTD SVG 1.1//EN" "http://www.w3.org/Graphics/SVG/1.1/DTD/svg11.dtd">
<!-- Creator: CorelDRAW 2020 (64-Bit) -->
<svg xmlns="http://www.w3.org/2000/svg" xml:space="preserve" width="77px" height="77px" version="1.1" shape-rendering="geometricPrecision" text-rendering="geometricPrecision" image-rendering="optimizeQuality" fill-rule="evenodd" clip-rule="evenodd"
viewBox="0 0 77 77"
 xmlns:xlink="http://www.w3.org/1999/xlink"
 xmlns:xodm="http://www.corel.com/coreldraw/odm/2003">
 <g id="Слой_x0020_1">
  <metadata id="CorelCorpID_0Corel-Layer"/>
  <g id="_2670346370240">
   <g>
    <path fill="#FC9E20" d="M15.05 1.55c-4.54,0.77 -8.47,3.74 -10.4,7.88 -1.7,3.62 -1.7,8.12 0,11.76 1.78,3.77 5.1,6.47 9.41,7.62 1.36,0.36 4.8,0.4 5.78,0.07 0.99,-0.33 1.4,-1.36 0.97,-2.33 -0.33,-0.74 -0.82,-0.86 -3.48,-0.89 -2.99,-0.05 -3.98,-0.35 -6.05,-1.74 -2.91,-1.98 -4.54,-5.1 -4.54,-8.63 0,-2.89 1.02,-5.37 3.04,-7.39 2.11,-2.12 4.49,-3.1 7.48,-3.1 3.06,0 5.53,1.1 7.66,3.38 0.57,0.62 1.34,1.68 1.7,2.38 0.71,1.36 1.01,1.6 1.91,1.6 1.01,0 1.64,-0.83 1.52,-2 -0.06,-0.54 -1.17,-2.51 -2.13,-3.69 -2.92,-3.68 -8.21,-5.7 -12.87,-4.92z"/>
    <path fill="#FC9E20" d="M53.01 1.69c-0.54,0.26 -1,0.97 -3.74,5.9l-3.13 5.6 -15.1 0.05 -15.12 0.05 -0.33 0.42c-0.23,0.28 -0.33,0.68 -0.33,1.32l0 0.92 11.22 16.93 11.22 16.92 0 11.53 0 11.54 -6.3 0c-5.88,0 -6.35,0.01 -6.85,0.33 -1.1,0.66 -1.2,2.14 -0.23,3.08l0.52 0.5 14.74 0.03c15.86,0.06 15.22,0.09 15.93,-0.87 0.63,-0.83 0.31,-2.41 -0.56,-2.85 -0.15,-0.07 -3.18,-0.17 -6.73,-0.23l-6.43 -0.08 -0.04 -11.4 -0.05 -11.39 11.24 -16.94c6.17,-9.32 11.27,-17.15 11.32,-17.43 0.12,-0.61 -0.21,-1.58 -0.66,-2 -0.35,-0.31 -0.82,-0.33 -6.61,-0.42l-6.24 -0.08 2.15 -3.83 2.16 -3.83 7.51 -0.05c7.26,-0.03 7.53,-0.05 8.02,-0.4 0.73,-0.5 0.98,-1.55 0.56,-2.38 -0.61,-1.27 -0.54,-1.25 -9.53,-1.25 -7.27,0 -8.06,0.03 -8.61,0.31zm-8.58 14.42c-0.03,0.09 -0.96,1.72 -2.03,3.67l-1.97 3.51 -8.52 -0.03 -8.52 -0.05 -2.15 -3.48c-1.16,-1.91 -2.13,-3.53 -2.13,-3.62 -0.02,-0.07 5.7,-0.12 12.69,-0.12 6.98,0 12.67,0.05 12.63,0.12zm13.57 3.53l-2.3 3.65 -5.25 0c-2.9,0 -5.27,-0.05 -5.27,-0.1 0,-0.14 3.62,-6.66 3.88,-6.99 0.12,-0.16 1.48,-0.21 5.69,-0.21l5.53 0 -2.28 3.65z"/>
   </g>
  </g>
 </g>
</svg>
