<svg xmlns="http://www.w3.org/2000/svg" xml:space="preserve" fill-rule="evenodd" clip-rule="evenodd" viewBox="0 0 77 77" xmlns:xlink="http://www.w3.org/1999/xlink">
  <path fill="#fff" d="M16.01 36.76l0 3.13 25 0 0 -21.88 -31.25 0 0 -3.13c0,-1.72 1.4,-3.12 3.12,-3.12l31.25 0c1.73,0 3.13,1.4 3.13,3.12l0 6.26 14.58 0c3.49,0 5,1.8 6.05,3.45 1.86,2.94 4.8,7.61 6.59,10.56 0.59,0.98 0.9,2.1 0.9,3.24l0 14c0,3.4 -2.32,6.25 -6.25,6.25l-3.12 0c0,5.17 -4.2,9.37 -9.38,9.37 -5.17,0 -9.37,-4.2 -9.37,-9.37l-12.5 0c0,5.17 -4.2,9.37 -9.38,9.37 -5.17,0 -9.37,-4.2 -9.37,-9.37l-3.13 0c-1.72,0 -3.12,-1.4 -3.12,-3.13l0 -18.75 -6.25 0 0 -6.25 21.87 0 0 6.25 -9.37 0zm9.37 18.13c2.07,0 3.75,1.68 3.75,3.75 0,2.07 -1.68,3.75 -3.75,3.75 -2.07,0 -3.75,-1.68 -3.75,-3.75 0,-2.07 1.68,-3.75 3.75,-3.75zm31.25 0c2.07,0 3.75,1.68 3.75,3.75 0,2.07 -1.68,3.75 -3.75,3.75 -2.07,0 -3.75,-1.68 -3.75,-3.75 0,-2.07 1.68,-3.75 3.75,-3.75zm-9.37 -8.75l-31.25 0 0 6.25 2.39 0c1.71,-1.92 4.21,-3.13 6.98,-3.13 2.78,0 5.27,1.21 6.99,3.13l17.28 0c1.71,-1.92 4.21,-3.13 6.98,-3.13 2.78,0 5.27,1.21 6.99,3.13l5.51 0 0 -14.3 -5.34 -9.16c-0.56,-0.96 -1.59,-1.55 -2.7,-1.55l-13.83 0.01 0 18.75zm3.12 -15.63l0 9.38 15.63 0 -4.46 -7.8c-0.56,-0.98 -1.59,-1.58 -2.71,-1.58l-8.46 0zm-50 -9.37l25 0 0 6.25 -25 0 0 -6.25z"/>
</svg>
