<svg xmlns="http://www.w3.org/2000/svg" xml:space="preserve" fill-rule="evenodd" clip-rule="evenodd" viewBox="0 0 77 77" xmlns:xlink="http://www.w3.org/1999/xlink">
	<path fill="#FC9E20" d="M7.77 16.22c-3.92,0 -7.13,2.8 -7.13,6.22l0 34.18c0,3.42 3.21,6.22 7.13,6.22l60.64 0c3.92,0 7.13,-2.8 7.13,-6.22l0 -34.18c0,-3.42 -3.21,-6.22 -7.13,-6.22l-60.64 0zm0 3.11l60.64 0c0.5,0 0.96,0.09 1.39,0.24l-29.15 22.07c-1.62,1.23 -3.56,1.23 -5.18,0l-29.09 -22.07c0.43,-0.15 0.89,-0.24 1.39,-0.24l0 0zm-3.51 2.77l28.87 21.87c2.84,2.16 7.02,2.15 9.86,0l28.93 -21.87c0.01,0.11 0.05,0.22 0.05,0.34l0 34.18c0,1.75 -1.56,3.11 -3.56,3.11l-60.64 0c-2.01,0 -3.57,-1.36 -3.57,-3.11l0 -34.18c0,-0.12 0.04,-0.23 0.06,-0.34z"/>
</svg>
