<?xml version="1.0" encoding="UTF-8"?>
<!DOCTYPE svg PUBLIC "-//W3C//DTD SVG 1.1//EN" "http://www.w3.org/Graphics/SVG/1.1/DTD/svg11.dtd">
<!-- Creator: CorelDRAW 2020 (64-Bit) -->
<svg xmlns="http://www.w3.org/2000/svg" xml:space="preserve" width="77px" height="77px" version="1.1" shape-rendering="geometricPrecision" text-rendering="geometricPrecision" image-rendering="optimizeQuality" fill-rule="evenodd" clip-rule="evenodd"
viewBox="0 0 77 77"
 xmlns:xlink="http://www.w3.org/1999/xlink"
 xmlns:xodm="http://www.corel.com/coreldraw/odm/2003">
 <g id="Слой_x0020_1">
  <metadata id="CorelCorpID_0Corel-Layer"/>
  <g id="_2670450194656">
   <g>
    <path fill="#FC9E20" d="M8.47 0.98c-0.27,0.14 -0.67,0.54 -0.86,0.89l-0.39 0.64 0 10.69 0 10.7 0.39 0.63c0.65,1.13 0.73,1.15 6.51,1.15 5.02,0 5.08,0 5.58,-0.35 0.27,-0.19 0.65,-0.54 0.82,-0.76 0.32,-0.43 0.32,-0.52 0.32,-11.37 0,-10.85 0,-10.94 -0.32,-11.36 -0.16,-0.23 -0.55,-0.58 -0.82,-0.78 -0.5,-0.34 -0.56,-0.34 -5.61,-0.34 -4.4,0.01 -5.19,0.05 -5.62,0.26z"/>
    <path fill="#FC9E20" d="M24.77 3.27l-0.96 0.06 0 9.4 0 9.4 4.96 2.02c4.62,1.86 5.06,2.01 6.43,2.16 2.19,0.23 7.53,0 15.31,-0.65 3.43,-0.29 3.69,-0.34 4.33,-0.72 0.82,-0.5 1.37,-1.4 1.37,-2.23 0,-1.99 -2.6,-3.27 -7.53,-3.73 -0.91,-0.08 -2.21,-0.15 -2.85,-0.15 -0.63,0 -1.33,-0.06 -1.53,-0.14 -0.55,-0.21 -1.02,-0.77 -1.02,-1.22 0,-0.47 0.49,-1.31 0.87,-1.5 0.77,-0.41 6.1,-1.6 7.89,-1.78 1.39,-0.14 2.04,0.06 3.18,0.91 1.16,0.87 4.76,4.08 7.18,6.36 2.42,2.31 3.29,2.74 4.76,2.39 0.81,-0.2 1.86,-0.99 2.21,-1.69 0.49,-0.93 0.24,-1.67 -1.31,-3.96 -2.9,-4.25 -9.31,-11.36 -11.27,-12.52 -1.57,-0.91 -8.73,-1.94 -16.4,-2.37 -2.57,-0.14 -13.37,-0.17 -15.62,-0.04z"/>
    <path fill="#FC9E20" d="M41.62 31.55c-1.06,0.29 -1.69,0.68 -2.43,1.53 -0.76,0.85 -1.23,2.07 -1.23,3.17l0 0.84 2.89 0 2.89 0 0 2.03 0 2.03 -0.95 0.2c-1.55,0.3 -3.56,1.01 -5.17,1.85 -5.87,3.01 -9.83,8.69 -10.65,15.28l-0.17 1.39 -0.73 0.34c-1.43,0.64 -2.42,2.39 -2.2,3.93 0.12,0.86 0.79,2.1 1.38,2.55 1.16,0.87 -0.15,0.82 21.48,0.82l19.9 0 0.78 -0.36c0.9,-0.41 1.76,-1.37 2.01,-2.21 0.61,-1.99 -0.25,-3.91 -2.09,-4.79l-0.7 -0.32 -0.12 -1.22c-0.61,-6.42 -4.93,-12.61 -10.88,-15.58 -1.17,-0.59 -3.71,-1.44 -5,-1.7l-0.96 -0.19 0 -2.02 0 -2.03 2.98 -0.01 3 0 -0.09 -1c-0.19,-1.95 -1.16,-3.38 -2.82,-4.2l-1.02 -0.5 -4.64 -0.03c-3.72,-0.03 -4.8,0 -5.46,0.2z"/>
    <polygon fill="#FC9E20" points="23.81,73.29 23.81,76.18 46.7,76.18 69.6,76.18 69.6,73.29 69.6,70.4 46.7,70.4 23.81,70.4 "/>
   </g>
  </g>
 </g>
</svg>
