<svg xmlns="http://www.w3.org/2000/svg" xml:space="preserve" viewBox="0 0 77 77"
 xmlns:xlink="http://www.w3.org/1999/xlink">
  <path fill="#fff" d="M55.74 16.6c-0.08,0.07 -1.36,1.09 -2.86,2.26 -2.71,2.1 -3.33,2.75 -3.53,3.66 -0.18,0.92 0.58,1.95 1.79,2.41 0.25,0.09 4.21,1.12 8.81,2.26 5.97,1.49 8.61,2.09 9.24,2.09 1.52,0 2.74,-0.84 3.42,-2.36 0.23,-0.5 0.25,-1.42 0.25,-9.92l0 -9.38 -0.35 -0.71c-0.58,-1.18 -1.71,-1.51 -3.02,-0.86 -0.34,0.16 -1.83,1.25 -3.29,2.39l-2.65 2.07 -1.53 -1.24c-5.57,-4.51 -11.98,-7.29 -18.92,-8.2 -2.24,-0.29 -6.22,-0.39 -8.26,-0.2 -16.22,1.43 -29.82,13.08 -33.69,28.88 -0.54,2.21 -0.88,4.42 -0.76,5.11 0.4,2.57 3.02,4.43 5.57,3.94 2.27,-0.43 3.64,-2.01 4.03,-4.67 0.27,-1.79 1.07,-4.57 1.89,-6.49 2.77,-6.53 8.13,-11.98 14.6,-14.88 8.87,-3.98 19.3,-3.13 27.26,2.22 2.03,1.35 2.18,1.47 2,1.62z"/>
  <path fill="#fff" d="M14.02 49.72c-5.96,-1.49 -8.61,-2.08 -9.24,-2.08 -1.51,0 -2.73,0.83 -3.42,2.35 -0.22,0.5 -0.25,1.43 -0.25,9.92l0 9.38 0.35 0.71c0.59,1.18 1.72,1.51 3.02,0.87 0.35,-0.17 1.84,-1.25 3.29,-2.4l2.65 -2.07 1.54 1.24c5.56,4.51 11.98,7.29 18.91,8.2 2.25,0.29 6.22,0.4 8.26,0.2 16.22,-1.42 29.82,-13.08 33.69,-28.88 0.54,-2.2 0.88,-4.42 0.76,-5.11 -0.4,-2.57 -3.02,-4.43 -5.56,-3.94 -2.28,0.43 -3.65,2.01 -4.04,4.68 -0.27,1.78 -1.07,4.56 -1.89,6.48 -2.77,6.54 -8.12,11.98 -14.6,14.89 -8.87,3.97 -19.3,3.12 -27.26,-2.22 -2.02,-1.36 -2.17,-1.48 -1.99,-1.63 0.07,-0.07 1.35,-1.08 2.85,-2.26 2.71,-2.1 3.34,-2.75 3.53,-3.66 0.18,-0.92 -0.58,-1.95 -1.79,-2.41 -0.25,-0.09 -4.21,-1.11 -8.81,-2.26z"/>
</svg>
