<svg xmlns="http://www.w3.org/2000/svg" xml:space="preserve" width="160px" height="40px" fill-rule="evenodd" clip-rule="evenodd" viewBox="0 0 160 40"
 xmlns:xlink="http://www.w3.org/1999/xlink">
 <g>
  <path fill="#fba419" fill-rule="nonzero" d="M154.2 27.57c0.94,0 1.73,0.38 2.35,1.11 0.62,0.75 0.92,1.65 0.92,2.74 0,1.04 -0.32,1.96 -0.96,2.77 -0.64,0.81 -1.41,1.22 -2.31,1.22 -0.88,0 -1.61,-0.36 -2.2,-1.09 -0.58,-0.72 -0.87,-1.62 -0.87,-2.71 0,-1.07 0.27,-2.01 0.82,-2.82 0.55,-0.81 1.3,-1.22 2.25,-1.22z"/>
  <path fill="#fff" fill-rule="nonzero" d="M138.26 11.59c1.53,-1.9 3.27,-2.85 5.23,-2.85 1.33,0 2.35,0.43 3.06,1.29 0.72,0.86 1.07,1.94 1.07,3.25l0 18.31c0,0.42 0.16,0.73 0.47,0.94 0.29,0.18 0.43,0.64 0.43,1.38 0,0.58 -0.05,0.93 -0.14,1.05 -0.1,0.11 -0.3,0.17 -0.6,0.17l-5.36 0c-0.77,-0.65 -1.14,-1.5 -1.14,-2.54l0 -18.2c0,-1 -0.42,-1.5 -1.25,-1.5 -0.54,0 -1.14,0.28 -1.77,0.84l0 17.86c0,0.47 0.22,0.82 0.66,1.07 0.27,0.16 0.4,0.44 0.4,0.85l0 0.97c0,0.44 -0.32,0.65 -0.94,0.65l-6.76 0c-0.33,0 -0.54,-0.04 -0.63,-0.14 -0.08,-0.1 -0.13,-0.34 -0.13,-0.72l0 -0.71c0,-0.37 0.11,-0.63 0.34,-0.78 0.3,-0.21 0.5,-0.42 0.59,-0.61 0.08,-0.19 0.13,-0.61 0.13,-1.26l0 -18.69c0,-0.44 -0.22,-0.77 -0.66,-0.97 -0.24,-0.12 -0.36,-0.32 -0.36,-0.62l0 -1.02c0,-0.4 0.18,-0.59 0.53,-0.59l6.24 0c0.26,0 0.43,0.03 0.49,0.11 0.07,0.07 0.1,0.23 0.1,0.47l0 1.99z"/>
  <path fill="#fff" fill-rule="nonzero" d="M122.05 19.1c-1.45,0.63 -2.31,1.35 -2.59,2.14 -0.28,0.79 -0.42,2.58 -0.42,5.36 0,2.05 0.11,3.34 0.34,3.89 0.23,0.54 0.63,0.8 1.19,0.8 0.98,0 1.48,-0.81 1.48,-2.44l0 -9.75zm0 -2.49l0 -3.71c0,-1.02 -0.42,-1.54 -1.25,-1.54 -1.15,0 -1.72,0.77 -1.72,2.32 0,0.88 -0.1,1.5 -0.3,1.86 -0.19,0.37 -0.64,0.69 -1.33,0.95 -0.69,0.27 -1.43,0.4 -2.22,0.4 -1.61,0 -2.42,-0.87 -2.42,-2.6 0,-1.63 0.71,-2.97 2.12,-4 1.4,-1.03 3.24,-1.55 5.51,-1.55 1.49,0 2.83,0.2 4.03,0.61 1.19,0.41 2.14,1.1 2.85,2.07 0.71,0.96 1.07,2.03 1.07,3.19l0 17.44c0.03,0.09 0.22,0.28 0.57,0.58 0.25,0.18 0.37,0.46 0.37,0.84 0,0.51 -0.07,0.87 -0.21,1.08 -0.14,0.22 -0.48,0.4 -1.01,0.59 -0.54,0.17 -1.22,0.27 -2.04,0.27 -0.98,0 -1.81,-0.19 -2.47,-0.55 -0.67,-0.37 -1.18,-1.08 -1.55,-2.14 -1.11,1.14 -2.01,1.88 -2.69,2.2 -0.7,0.32 -1.4,0.49 -2.13,0.49 -1.61,0 -2.87,-0.64 -3.75,-1.9 -0.89,-1.27 -1.33,-3.34 -1.33,-6.22 0,-2.88 0.41,-4.88 1.24,-5.99 0.83,-1.11 2.45,-2.14 4.86,-3.08 1.52,-0.59 2.8,-1.13 3.8,-1.61z"/>
  <path fill="#fff" fill-rule="nonzero" d="M100.24 11.72c1.83,-1.99 3.55,-2.98 5.15,-2.98 0.7,0 1.36,0.15 2,0.44 0.63,0.29 1.15,0.83 1.54,1.62 0.4,0.78 0.59,1.63 0.59,2.57l0 18.11c0,0.33 0.15,0.66 0.43,0.97 0.32,0.36 0.47,0.72 0.47,1.08l0 0.91c0,0.46 -0.21,0.69 -0.63,0.69l-5.46 0c-0.77,-0.6 -1.15,-1.53 -1.15,-2.79l0 -18.03c0,-0.88 -0.42,-1.32 -1.28,-1.32 -0.53,0 -0.94,0.14 -1.23,0.41 -0.28,0.27 -0.43,0.62 -0.43,1.02l0 17.29c0,0.35 0.19,0.69 0.56,0.99 0.23,0.19 0.34,0.39 0.34,0.59l0 1.15c0,0.46 -0.21,0.69 -0.64,0.69l-5.55 0c-0.7,-0.69 -1.05,-1.62 -1.05,-2.79l0 -18.03c0,-0.84 -0.35,-1.26 -1.04,-1.26 -0.28,0 -0.76,0.18 -1.45,0.55 -0.07,0.04 -0.16,0.09 -0.29,0.15l0 17.96c0,0.34 0.2,0.67 0.59,0.97 0.26,0.19 0.39,0.43 0.39,0.73l0 1.03c0,0.46 -0.23,0.69 -0.69,0.69l-7.18 0c-0.34,0 -0.51,-0.15 -0.51,-0.46l0 -1.26c0,-0.19 0.17,-0.46 0.51,-0.82 0.36,-0.38 0.55,-0.66 0.55,-0.88l0 -19.29c0,-0.51 -0.23,-0.87 -0.66,-1.06 -0.27,-0.11 -0.4,-0.36 -0.4,-0.75l0 -0.98c0,-0.41 0.25,-0.61 0.74,-0.61l5.99 0c0.45,0 0.67,0.2 0.67,0.6l0 1.92c1.68,-1.87 3.38,-2.8 5.09,-2.8 1.72,0 3.07,0.99 4.03,2.98z"/>
  <path fill="#fff" fill-rule="nonzero" d="M75.86 19.27l0 -6.31c0,-1.19 -0.44,-1.79 -1.3,-1.79 -0.88,0 -1.33,0.6 -1.33,1.79l0 6.31 2.63 0zm-2.63 2.43l0 7.81c0,1.04 0.2,1.85 0.6,2.43 0.41,0.59 0.92,0.88 1.55,0.88 0.97,0 1.75,-0.41 2.33,-1.23 0.58,-0.83 0.89,-1.95 0.93,-3.38 0.01,-0.77 0.08,-1.23 0.22,-1.39 0.13,-0.15 0.6,-0.22 1.39,-0.22 0.7,0 1.13,0.07 1.32,0.2 0.19,0.15 0.28,0.5 0.28,1.06 0,1.97 -0.64,3.71 -1.92,5.25 -1.28,1.53 -2.97,2.3 -5.07,2.3 -2.42,0 -4.47,-1.1 -6.15,-3.29 -1.68,-2.18 -2.53,-5.47 -2.53,-9.88 0,-4.39 0.78,-7.74 2.34,-10.05 1.56,-2.3 3.6,-3.45 6.13,-3.45 2.16,0 3.91,0.97 5.23,2.91 1.31,1.94 1.97,4.7 1.97,8.27l0 1.78 -8.62 0z"/>
  <path fill="#fff" fill-rule="nonzero" d="M58.32 19.27l0 -6.31c0,-1.19 -0.43,-1.79 -1.3,-1.79 -0.88,0 -1.32,0.6 -1.32,1.79l0 6.31 2.62 0zm-2.62 2.43l0 7.81c0,1.04 0.2,1.85 0.6,2.43 0.4,0.59 0.92,0.88 1.54,0.88 0.98,0 1.75,-0.41 2.33,-1.23 0.59,-0.83 0.89,-1.95 0.93,-3.38 0.01,-0.77 0.08,-1.23 0.22,-1.39 0.13,-0.15 0.6,-0.22 1.4,-0.22 0.69,0 1.13,0.07 1.31,0.2 0.19,0.15 0.28,0.5 0.28,1.06 0,1.97 -0.64,3.71 -1.91,5.25 -1.28,1.53 -2.97,2.3 -5.08,2.3 -2.41,0 -4.46,-1.1 -6.14,-3.29 -1.69,-2.18 -2.53,-5.47 -2.53,-9.88 0,-4.39 0.78,-7.74 2.34,-10.05 1.56,-2.3 3.6,-3.45 6.12,-3.45 2.17,0 3.91,0.97 5.23,2.91 1.31,1.94 1.97,4.7 1.97,8.27l0 1.78 -8.61 0z"/>
  <path fill="#fff" fill-rule="nonzero" d="M39.17 9.02l0 -1.23c0,-1.16 0.41,-2.15 1.24,-2.98 0.83,-0.83 2.01,-1.24 3.57,-1.24 2.09,0 3.14,0.73 3.14,2.2 0,0.71 -0.19,1.22 -0.58,1.52 -0.4,0.29 -0.78,0.43 -1.15,0.43 -0.41,0 -0.91,-0.19 -1.5,-0.57 -0.59,-0.36 -1.01,-0.54 -1.26,-0.54 -0.29,0 -0.53,0.12 -0.72,0.36 -0.2,0.24 -0.29,0.49 -0.29,0.74 0,0.36 0.14,0.67 0.42,0.92 0.28,0.26 0.55,0.39 0.8,0.39l3.26 0c0.42,0 0.63,0.21 0.63,0.65l0 1.13c0,0.34 -0.14,0.6 -0.44,0.76 -0.51,0.31 -0.77,0.86 -0.77,1.66l0 18.75c0,0.27 0.21,0.52 0.64,0.75 0.2,0.11 0.32,0.23 0.36,0.35 0.03,0.12 0.05,0.38 0.05,0.79 0,0.61 -0.01,0.97 -0.04,1.09 -0.03,0.12 -0.18,0.18 -0.45,0.18l-7.55 0c-0.33,0 -0.49,-0.17 -0.49,-0.51l0 -1.27c0,-0.37 0.16,-0.61 0.46,-0.72 0.45,-0.17 0.67,-0.62 0.67,-1.36l0 -18.41c0,-0.48 -0.22,-0.89 -0.69,-1.22 -0.29,-0.21 -0.44,-0.49 -0.44,-0.84l0 -1.13c0,-0.44 0.17,-0.65 0.5,-0.65l0.63 0z"/>
  <path fill="#fff" fill-rule="nonzero" d="M27.66 8.74c2.4,0 4.4,1.08 6.01,3.22 1.61,2.15 2.41,5.34 2.41,9.58 0,4.57 -0.81,8.02 -2.45,10.35 -1.63,2.35 -3.66,3.52 -6.1,3.52 -1.68,0 -3.14,-0.54 -4.38,-1.61 -1.24,-1.07 -2.19,-2.5 -2.86,-4.29 -0.67,-1.78 -1.01,-4.23 -1.01,-7.32 0,-4.43 0.77,-7.77 2.31,-10.04 1.54,-2.27 3.56,-3.41 6.07,-3.41zm1.37 4.8c0,-1.58 -0.45,-2.37 -1.37,-2.37 -0.99,0 -1.48,0.96 -1.48,2.9l0 15.9c0,1.92 0.45,2.89 1.35,2.89 1,0 1.5,-0.97 1.5,-2.89l0 -16.43z"/>
  <path fill="#fff" fill-rule="nonzero" d="M11.28 12.45l0 18.57c0,0.44 0.13,0.84 0.4,1.19 0.26,0.36 0.63,0.53 1.1,0.53 0.65,0 1.15,-0.39 1.5,-1.18 0.35,-0.79 0.53,-1.81 0.53,-3.07l-0.02 -0.53c0,-0.68 0.12,-1.08 0.37,-1.21 0.25,-0.13 0.67,-0.19 1.27,-0.19 0.52,0 0.88,0.1 1.07,0.28 0.18,0.19 0.28,0.6 0.28,1.21 0,1.98 -0.51,3.7 -1.55,5.16 -1.03,1.46 -2.5,2.2 -4.4,2.2 -2.23,-0.01 -4.06,-1.13 -5.49,-3.37 -1.43,-2.24 -2.14,-5.42 -2.14,-9.54 0,-3.08 0.36,-5.65 1.09,-7.69 0.72,-2.04 1.6,-3.57 2.65,-4.57 1.03,-1 2.33,-1.49 3.89,-1.5 1.84,0 3.3,0.61 4.38,1.84 1.08,1.23 1.61,2.65 1.61,4.27 0,0.84 -0.17,1.55 -0.53,2.13 -0.36,0.59 -0.9,0.88 -1.63,0.88 -0.75,0 -1.33,-0.28 -1.73,-0.84 -0.4,-0.56 -0.6,-1.26 -0.6,-2.11 0,-0.36 0.04,-0.77 0.11,-1.25 0.11,-0.55 0.15,-0.98 0.15,-1.3 0,-0.34 -0.11,-0.62 -0.35,-0.85 -0.25,-0.22 -0.53,-0.34 -0.85,-0.34 -0.3,0 -0.56,0.14 -0.78,0.4 -0.22,0.27 -0.33,0.56 -0.33,0.88z"/>
 </g>
</svg>
