<svg xmlns="http://www.w3.org/2000/svg" viewBox="0 0 81 61">
	<path fill="#fff" d="M35.841.01C18.994 4.89.007 19.255.007 38.771c0 11.114 6.953 22.227 18.719 22.227 9.627 0 17.65-7.318 17.65-17.618 0-10.03-6.418-16.806-16.313-16.806-1.604 0-3.209.542-5.08.813 3.476-8.403 12.568-13.553 20.858-15.992zm44.613 0C63.606 4.89 44.62 19.255 44.62 38.771c0 11.114 6.952 22.227 18.719 22.227 9.627 0 17.65-7.318 17.65-17.618 0-10.03-6.419-16.806-16.313-16.806-1.605 0-3.209.542-5.081.813 3.476-8.403 12.569-13.553 20.859-15.992z"/>
</svg>