<svg width="154" height="162" xmlns="http://www.w3.org/2000/svg">
 <g>
  <title>Layer 1</title>
  <g transform="matrix(1.7777778837415923,0,0,1.7777778837415923,0,0) " id="svg_4">
   <path id="svg_5" d="m66.296005,72.974999c-6.377,5.929 -14.638,9.183 -23.375,9.183s-16.998,-3.253 -23.374,-9.183c-14.218,2.234 -19.547,5.866 -19.547,7.672c0,3.264 14.741,9.354 42.921,9.354s42.921,-6.09 42.921,-9.354c0,-1.806 -5.329,-5.438 -19.546,-7.672z"/>
   <path id="svg_6" fill="#fc9e20" d="m73.280005,36.951999l0,-1.325c-7,3.863 -21.571,5.029 -30.359,5.029s-23.359,-1.167 -30.359,-5.029l0,12.171c0,16.74 13.619,30.359 30.359,30.359c10.499,0 19.769,-5.358 25.223,-13.482l3.069,0c7.69,0 13.947,-6.256 13.947,-13.947c0,-6.985 -5.168,-12.77 -11.88,-13.776zm-2.067,23.723l-0.503,0c0.898,-2.209 1.548,-4.489 1.963,-6.824c0.397,-1.957 0.607,-3.98 0.607,-6.053l0,-6.798c4.496,0.955 7.88,4.953 7.88,9.729c0,5.484 -4.462,9.946 -9.947,9.946z"/>
   <g id="svg_7">
    <path id="svg_8" d="m30.884005,30.273999c-1.104,0 -2,-0.896 -2,-2c0,-2.965 1.455,-4.562 2.519,-5.728c0.919,-1.009 1.474,-1.617 1.474,-3.032s-0.556,-2.023 -1.476,-3.032c-1.062,-1.166 -2.518,-2.762 -2.518,-5.727c0,-2.963 1.455,-4.559 2.519,-5.724c0.919,-1.008 1.474,-1.616 1.474,-3.03c0,-1.104 0.896,-2 2,-2s2,0.896 2,2c0,2.964 -1.456,4.56 -2.519,5.725c-0.919,1.008 -1.474,1.616 -1.474,3.029c0,1.415 0.555,2.024 1.475,3.033c1.062,1.166 2.518,2.762 2.518,5.727c0,2.964 -1.455,4.561 -2.518,5.727c-0.92,1.009 -1.475,1.618 -1.475,3.033c0.001,1.104 -0.895,1.999 -1.999,1.999z"/>
   </g>
   <g id="svg_9">
    <path id="svg_10" d="m41.547005,30.273999c-1.104,0 -2,-0.896 -2,-2c0,-2.965 1.456,-4.562 2.519,-5.728c0.92,-1.008 1.475,-1.617 1.475,-3.032c0,-1.415 -0.555,-2.024 -1.475,-3.032c-1.062,-1.166 -2.519,-2.763 -2.519,-5.728c0,-2.963 1.456,-4.559 2.519,-5.724c0.92,-1.008 1.475,-1.616 1.475,-3.03c0,-1.104 0.896,-2 2,-2s2,0.896 2,2c0,2.964 -1.456,4.56 -2.52,5.726c-0.919,1.007 -1.474,1.615 -1.474,3.028c0,1.415 0.555,2.024 1.475,3.032c1.062,1.166 2.519,2.763 2.519,5.728c0,2.964 -1.456,4.561 -2.519,5.727c-0.92,1.009 -1.475,1.618 -1.475,3.033c0,1.105 -0.896,2 -2,2z"/>
   </g>
   <g id="svg_11">
    <path id="svg_12" d="m52.211005,30.273999c-1.104,0 -2,-0.896 -2,-2c0,-2.965 1.456,-4.562 2.519,-5.728c0.92,-1.008 1.475,-1.617 1.475,-3.032c0,-1.415 -0.555,-2.024 -1.475,-3.032c-1.062,-1.166 -2.519,-2.763 -2.519,-5.728c0,-2.963 1.456,-4.559 2.519,-5.724c0.92,-1.008 1.475,-1.616 1.475,-3.03c0,-1.104 0.896,-2 2,-2s2,0.896 2,2c0,2.964 -1.456,4.56 -2.52,5.726c-0.919,1.007 -1.474,1.615 -1.474,3.028c0,1.415 0.555,2.024 1.475,3.032c1.062,1.166 2.519,2.763 2.519,5.728c0,2.964 -1.456,4.561 -2.519,5.727c-0.92,1.009 -1.475,1.618 -1.475,3.033c0,1.105 -0.895,2 -2,2z"/>
   </g>
   <path id="svg_13" d="m60.464005,25.615999c-0.634,1 -1.315,1.764 -1.822,2.321c-0.146,0.159 -0.314,0.344 -0.433,0.482c-0.077,3.242 -2.738,5.855 -5.998,5.855c-2.322,0 -4.336,-1.329 -5.333,-3.263c-0.997,1.934 -3.01,3.263 -5.331,3.263c-2.322,0 -4.335,-1.328 -5.333,-3.262c-0.997,1.934 -3.009,3.262 -5.33,3.262c-3.309,0 -6,-2.691 -6,-6c0,-0.97 0.122,-1.831 0.303,-2.626c-8.356,1.431 -12.625,3.641 -12.625,4.828c0,1.848 10.329,6.18 30.359,6.18s30.359,-4.332 30.359,-6.18c0,-1.196 -4.333,-3.431 -12.816,-4.86z"/>
  </g>
 </g>
</svg>