<svg xmlns="http://www.w3.org/2000/svg" xml:space="preserve" fill-rule="evenodd" clip-rule="evenodd" viewBox="0 0 77 77" xmlns:xlink="http://www.w3.org/1999/xlink">
	<path fill="#fff" d="M27.59 2.53c-0.23,0.02 -1.02,0.12 -1.76,0.21 -8.92,1.11 -17.13,6.94 -21.34,15.18 -2.16,4.22 -3.08,8.02 -3.08,12.92 0,4.9 0.92,8.69 3.08,12.92 4.15,8.12 11.67,13.56 20.89,15.15 2.04,0.33 6.66,0.33 8.69,-0.02 4.69,-0.8 9.12,-2.64 12.49,-5.19l0.87 -0.67 1.43 1.43 1.44 1.43 -0.35 0.53c-0.78,1.13 -0.87,3.09 -0.21,4.34 0.25,0.46 2.76,3.12 7.62,8.03 8.21,8.34 8.04,8.2 10.04,8.17 1.73,-0.01 2.17,-0.28 5.17,-3.28 3,-3.02 3.26,-3.43 3.28,-5.19 0.03,-1.89 0.09,-1.82 -8.11,-10.12 -7.92,-8.02 -7.87,-7.98 -9.62,-8.08 -1.14,-0.07 -1.95,0.13 -2.71,0.65l-0.56 0.38 -1.44 -1.44 -1.43 -1.43 0.63 -0.82c0.68,-0.9 2.13,-3.26 2.13,-3.46 0,-0.05 -0.36,-0.07 -0.79,-0.01l-0.81 0.08 -0.36 -0.57c-0.2,-0.32 -0.65,-1.12 -0.99,-1.76l-0.62 -1.2 -0.77 1.38c-1.14,2.08 -2.34,3.66 -4.05,5.38 -6.32,6.32 -15.43,8.48 -24.03,5.72 -6.2,-2 -11.74,-7.11 -14.3,-13.22 -2.36,-5.6 -2.43,-12.07 -0.21,-17.74 2.37,-6.03 7.27,-10.93 13.34,-13.32 5,-1.97 10.9,-2.13 15.98,-0.43 0.72,0.24 1.32,0.43 1.37,0.43 0.04,0 0.02,-0.28 -0.02,-0.63 -0.1,-0.63 -0.09,-0.65 0.69,-1.24 0.43,-0.32 1.18,-0.85 1.67,-1.16 0.48,-0.32 0.91,-0.59 0.96,-0.62 0.11,-0.09 -0.36,-0.31 -1.85,-0.9 -1.73,-0.66 -3.87,-1.23 -5.81,-1.56 -1.35,-0.21 -5.65,-0.41 -6.55,-0.27l0 0z"/>
	<path fill="#fff" d="M52.78 5.26c-0.36,0.53 -1.1,2.22 -1.48,3.37 -0.19,0.59 -0.44,1.11 -0.55,1.17 -0.11,0.06 -0.56,0.14 -0.98,0.2 -0.42,0.06 -1.2,0.24 -1.74,0.4l-0.96 0.29 -0.83 -0.92c-0.94,-1.07 -2.7,-2.78 -2.85,-2.78 -0.17,0 -2.27,1.31 -2.45,1.52 -0.19,0.22 0.33,2.31 0.97,3.99l0.46 1.14 -0.8 0.93c-0.42,0.5 -0.96,1.22 -1.17,1.61 -0.31,0.54 -0.46,0.66 -0.71,0.6 -0.67,-0.15 -2.29,-0.34 -3.59,-0.45l-1.34 -0.09 -0.47 1.43c-0.42,1.33 -0.44,1.45 -0.21,1.71 0.33,0.36 2.48,1.77 3.39,2.23l0.75 0.38 0.09 1.81c0.04,1 0.11,1.92 0.16,2.04 0.06,0.15 -0.29,0.44 -1.21,0.98 -0.7,0.41 -1.66,1.08 -2.14,1.44 -0.99,0.8 -1.01,0.84 -0.23,2.57l0.48 1.05 1.11 -0.11c1.08,-0.08 3.3,-0.4 3.92,-0.58 0.21,-0.06 0.36,0.04 0.54,0.36 0.15,0.23 0.74,0.91 1.31,1.48l1.05 1.06 -0.53 1.57c-0.27,0.87 -0.58,1.98 -0.69,2.45 -0.17,0.85 -0.15,0.9 0.17,1.16 0.19,0.16 0.81,0.52 1.37,0.79l1.01 0.52 0.95 -0.94c0.72,-0.7 2.54,-2.81 2.61,-3.02 0,-0.01 0.32,0.05 0.67,0.14 0.37,0.09 1.24,0.19 1.98,0.24l1.32 0.09 0.39 1.08c0.22,0.58 0.69,1.65 1.05,2.35l0.63 1.28 0.62 -0.04c0.33,-0.03 1.03,-0.17 1.54,-0.3l0.93 -0.25 0.1 -0.73c0.04,-0.42 0.1,-1.61 0.1,-2.69 0.01,-1.77 0.05,-1.94 0.3,-2.03 0.16,-0.04 0.93,-0.51 1.71,-1.03l1.43 -0.95 0.96 0.57c0.55,0.32 1.58,0.83 2.3,1.13l1.31 0.58 0.7 -0.81c0.41,-0.44 0.83,-1.02 0.96,-1.26 0.26,-0.46 0.26,-0.46 -0.38,-1.41 -0.55,-0.8 -0.91,-1.27 -2.32,-2.95 -0.2,-0.22 -0.18,-0.37 0.12,-1.13 0.16,-0.47 0.42,-1.33 0.57,-1.87 0.22,-0.91 0.29,-1.02 0.69,-1.11 0.24,-0.04 0.96,-0.21 1.61,-0.35 0.64,-0.14 1.6,-0.38 2.11,-0.55l0.93 -0.29 -0.06 -1.45c-0.03,-0.8 -0.12,-1.52 -0.21,-1.61 -0.16,-0.16 -3.01,-0.9 -4.38,-1.14 -0.72,-0.11 -0.72,-0.11 -0.99,-0.92 -0.15,-0.45 -0.48,-1.26 -0.74,-1.8l-0.47 -0.98 0.62 -0.78c0.68,-0.85 2.37,-3.33 2.37,-3.49 0,-0.05 -0.46,-0.59 -1,-1.19l-1.01 -1.09 -1.17 0.5c-0.63,0.27 -1.68,0.83 -2.33,1.2 -0.64,0.41 -1.21,0.71 -1.3,0.71 -0.08,0 -0.32,-0.13 -0.55,-0.29 -0.22,-0.16 -0.98,-0.58 -1.67,-0.9l-1.26 -0.6 0 -1.09c0,-0.59 -0.08,-1.74 -0.17,-2.54 -0.19,-1.64 -0.09,-1.52 -1.51,-1.77 -1.33,-0.24 -1.67,-0.21 -1.91,0.16zm0.97 9.46c2.81,0.5 5.26,2.41 6.44,5.01 1.22,2.69 1,5.97 -0.56,8.39 -1.16,1.79 -3.23,3.31 -5.25,3.82 -1.12,0.28 -3.3,0.28 -4.41,0 -3.82,-1 -6.55,-4.49 -6.58,-8.39 -0.02,-1.6 0.18,-2.61 0.84,-3.97 1.19,-2.48 3.62,-4.37 6.26,-4.86 1.42,-0.25 1.88,-0.25 3.26,0z"/>
</svg>
