<?xml version="1.0" encoding="UTF-8"?>
<!DOCTYPE svg PUBLIC "-//W3C//DTD SVG 1.1//EN" "http://www.w3.org/Graphics/SVG/1.1/DTD/svg11.dtd">
<!-- Creator: CorelDRAW 2020 (64-Bit) -->
<svg xmlns="http://www.w3.org/2000/svg" xml:space="preserve" width="77px" height="77px" version="1.1" shape-rendering="geometricPrecision" text-rendering="geometricPrecision" image-rendering="optimizeQuality" fill-rule="evenodd" clip-rule="evenodd"
viewBox="0 0 77 77"
 xmlns:xlink="http://www.w3.org/1999/xlink"
 xmlns:xodm="http://www.corel.com/coreldraw/odm/2003">
 <g id="Слой_x0020_1">
  <metadata id="CorelCorpID_0Corel-Layer"/>
  <g id="_2670345912528">
   <path fill="#FC9E20" d="M26.11 32.97l1.4 0.15c0.31,0 0.54,-0.15 0.62,-0.46l0.46 -3.87 0.7 0.46c0.62,0.47 1,1.16 1,1.94l0 4.03 -1.54 0c-0.31,0 -0.55,0.23 -0.55,0.54l0 1.08 5.97 0 0 -1.08c0,-0.31 -0.24,-0.54 -0.55,-0.54l-1.47 0 0 -4.03c0,-1.39 -0.69,-2.63 -1.78,-3.49l-1.47 -1.08 0.62 -5.19c0,-0.31 -0.15,-0.54 -0.46,-0.62l-1.4 -0.15c-0.31,0 -0.54,0.15 -0.62,0.46l-1.24 11.15c-0.15,0.39 0.08,0.62 0.31,0.7z"/>
   <circle fill="#FC9E20" cx="9.07" cy="25.07" r="4.03"/>
   <path fill="#FC9E20" d="M20.23 43.89c-0.08,-0.93 -0.93,-1.63 -1.86,-1.63 0,0 0,0 0,0l-4.8 0 -0.47 -6.58c1.32,0.78 2.87,1.24 4.41,1.24l3.41 0c0.86,0 1.55,-0.7 1.55,-1.55 0,-0.85 -0.69,-1.55 -1.55,-1.55l-3.41 0c-1.08,0 -2.09,-0.31 -3.02,-0.93l-3.09 -2.01c-0.62,-0.39 -1.32,-0.62 -2.02,-0.62 0,0 0,0 0,0l-0.54 0c-1.08,0 -2.09,0.46 -2.79,1.32 -0.69,0.85 -1,1.93 -0.85,3.02l1.55 9.91c0.15,0.93 0.93,1.55 1.86,1.55 0,0 0,0 0,0l8.21 0 1.08 10.22c0.08,0.93 0.93,1.63 1.86,1.63 0.08,0 0.16,0 0.23,0 1.01,-0.08 1.79,-1.01 1.63,-2.01l-1.39 -12.01z"/>
   <path fill="#FC9E20" d="M14.19 47.45l-6.28 0c-1.39,0 -2.55,-1 -2.79,-2.4l-1.62 -10.45c-0.08,-0.7 -0.78,-1.16 -1.4,-1.01 -0.69,0.08 -1.16,0.77 -1,1.39l1.62 10.46c0.39,2.63 2.64,4.49 5.27,4.49l6.27 0c0.7,0 1.24,-0.54 1.24,-1.24 0,-0.69 -0.62,-1.24 -1.31,-1.24z"/>
   <path fill="#FC9E20" d="M47.49 35.76c0,-0.31 -0.23,-0.54 -0.54,-0.54l-1.55 0 0 -4.03c0,-0.78 0.38,-1.47 1,-1.94l0.7 -0.46 0.47 3.87c0,0.31 0.31,0.46 0.62,0.46l1.39 -0.15c0.31,0 0.46,-0.31 0.46,-0.62l-1.23 -11.15c0,-0.31 -0.32,-0.47 -0.62,-0.47l-1.4 0.16c-0.31,0 -0.46,0.31 -0.46,0.62l0.62 5.19 -1.63 1.08c-1.16,0.78 -1.78,2.09 -1.78,3.49l0 4.02 -1.47 0c-0.31,0 -0.55,0.24 -0.55,0.55l0 1.08 5.97 0 0 -1.16z"/>
   <circle fill="#FC9E20" cx="66.54" cy="25.07" r="4.03"/>
   <path fill="#FC9E20" d="M67.16 45.98c0.93,0 1.7,-0.7 1.86,-1.55l1.55 -9.91c0.15,-1.08 -0.16,-2.17 -0.85,-3.02 -0.7,-0.85 -1.71,-1.32 -2.79,-1.32l-0.54 0c0,0 0,0 0,0 -0.78,0 -1.48,0.23 -2.02,0.62l-3.1 2.02c-0.93,0.62 -1.93,0.92 -3.02,0.92l-3.4 0c-0.86,0 -1.55,0.7 -1.55,1.55 0,0.86 0.69,1.55 1.55,1.55l3.4 0c1.55,0 3.1,-0.46 4.42,-1.24l-0.47 6.59 -4.8 0c0,0 0,0 0,0 -0.93,0 -1.78,0.69 -1.86,1.62l-1.31 11.85c-0.08,1.01 0.62,1.94 1.62,2.02 0.08,0 0.16,0 0.23,0 0.93,0 1.79,-0.7 1.86,-1.63l1.09 -10.22 8.13 0.15c0,0 0,0 0,0z"/>
   <path fill="#FC9E20" d="M73.51 33.59c-0.7,-0.08 -1.31,0.39 -1.39,1.01l-1.63 10.45c-0.23,1.4 -1.39,2.4 -2.79,2.4l-6.27 0c-0.7,0 -1.24,0.55 -1.24,1.24 0,0.7 0.54,1.24 1.24,1.24l6.27 0c2.64,0 4.88,-1.86 5.27,-4.49l1.63 -10.46c0.07,-0.62 -0.39,-1.31 -1.09,-1.39z"/>
   <path fill="#FC9E20" d="M49.97 55.59l-2.48 0 0 -14.72 10.76 0c0.7,0 1.24,-0.54 1.24,-1.24 0,-0.7 -0.54,-1.24 -1.24,-1.24l-40.89 0c-0.7,0 -1.24,0.54 -1.24,1.24 0,0.7 0.54,1.24 1.24,1.24l10.77 0 0 14.72 -2.48 0c-0.7,0 -1.24,0.54 -1.24,1.24 0,0.69 0.54,1.23 1.24,1.23l24.39 0c0.7,0 1.24,-0.54 1.24,-1.23 0,-0.7 -0.62,-1.24 -1.31,-1.24z"/>
  </g>
 </g>
</svg>
