<svg xmlns="http://www.w3.org/2000/svg" xml:space="preserve" fill-rule="evenodd" clip-rule="evenodd" viewBox="0 0 77 77" xmlns:xlink="http://www.w3.org/1999/xlink">
	<path fill="#fff" d="M50.39 43.38l8.24 -12.58 -1.42 -1.27 -11.48 9.69c-2.11,-0.44 -4.38,0.21 -5.91,1.93 -2.3,2.57 -2.08,6.52 0.49,8.82 2.58,2.3 6.53,2.08 8.82,-0.5 1.54,-1.72 1.93,-4.04 1.26,-6.09zm-12.21 -33.26l0 -8.41 12.49 0 0 8.41c-4.49,-0.76 -8.1,-0.74 -12.49,0zm27.65 6.45l4.39 -4.4 4.42 4.42 -4.13 4.13c-1.44,-1.51 -3.01,-2.9 -4.68,-4.15l0 0zm-58.89 13.25l24.99 0 0 6.25 -24.99 0 0 -6.25zm-6.25 12.5l24.99 0 0 6.25 -24.99 0 0 -6.25zm9.37 12.49l21.87 0 0 6.25 -21.87 0 0 -6.25 0 0zm65.6 -9.37c0,17.26 -13.98,31.24 -31.24,31.24 -8.71,0 -16.55,-3.61 -22.21,-9.37l10.25 0c3.55,1.97 7.62,3.12 11.96,3.12 13.78,0 25,-11.21 25,-24.99 0,-13.78 -11.22,-24.99 -25,-24.99 -4.34,0 -8.41,1.15 -11.96,3.12l-10.25 0c5.66,-5.76 13.5,-9.37 22.21,-9.37 17.26,0 31.24,13.99 31.24,31.24l0 0z"/>
</svg>
